REM DIRINDEX 1\4,1\2\5,1\2\6,1\3\7,1\3\8
REM DIRNAME folder01,folder02,folder03,folder04,folder05,folder06,folder07,folder08
TITLE ""
FILE "007_Day04_Check2_Phrases.mp3" MP3
  TRACK 01 AUDIO
    TITLE "0:"
    INDEX 01 00:00:00
  TRACK 02 AUDIO
    TITLE "4:cjc124_0199"
    INDEX 01 00:00:31
  TRACK 03 AUDIO
    TITLE "0:"
    INDEX 01 00:01:44
  TRACK 04 AUDIO
    TITLE "5:cjc124_0200"
    INDEX 01 00:02:04
  TRACK 05 AUDIO
    TITLE "0:"
    INDEX 01 00:03:53
  TRACK 06 AUDIO
    TITLE "6:cjc124_0201"
    INDEX 01 00:03:74
  TRACK 07 AUDIO
    TITLE "0:"
    INDEX 01 00:05:57
  TRACK 08 AUDIO
    TITLE "5:cjc124_0202"
    INDEX 01 00:06:22
  TRACK 09 AUDIO
    TITLE "0:"
    INDEX 01 00:08:62
  TRACK 10 AUDIO
    TITLE "6:cjc124_0203"
    INDEX 01 00:09:00
  TRACK 11 AUDIO
    TITLE "0:"
    INDEX 01 00:11:56
  TRACK 12 AUDIO
    TITLE "5:cjc124_0204"
    INDEX 01 00:12:18
  TRACK 13 AUDIO
    TITLE "0:"
    INDEX 01 00:14:15
  TRACK 14 AUDIO
    TITLE "6:cjc124_0205"
    INDEX 01 00:14:31
  TRACK 15 AUDIO
    TITLE "0:"
    INDEX 01 00:16:14
  TRACK 16 AUDIO
    TITLE "5:cjc124_0206"
    INDEX 01 00:16:53
  TRACK 17 AUDIO
    TITLE "0:"
    INDEX 01 00:18:46
  TRACK 18 AUDIO
    TITLE "6:cjc124_0207"
    INDEX 01 00:18:60
  TRACK 19 AUDIO
    TITLE "0:"
    INDEX 01 00:20:26
  TRACK 20 AUDIO
    TITLE "5:cjc124_0208"
    INDEX 01 00:20:61
  TRACK 21 AUDIO
    TITLE "0:"
    INDEX 01 00:22:36
  TRACK 22 AUDIO
    TITLE "6:cjc124_0209"
    INDEX 01 00:22:50
  TRACK 23 AUDIO
    TITLE "0:"
    INDEX 01 00:24:08
  TRACK 24 AUDIO
    TITLE "5:cjc124_0210"
    INDEX 01 00:24:45
  TRACK 25 AUDIO
    TITLE "0:"
    INDEX 01 00:26:56
  TRACK 26 AUDIO
    TITLE "6:cjc124_0211"
    INDEX 01 00:26:71
  TRACK 27 AUDIO
    TITLE "0:"
    INDEX 01 00:28:35
  TRACK 28 AUDIO
    TITLE "5:cjc124_0212"
    INDEX 01 00:28:74
  TRACK 29 AUDIO
    TITLE "0:"
    INDEX 01 00:31:20
  TRACK 30 AUDIO
    TITLE "6:cjc124_0213"
    INDEX 01 00:31:35
  TRACK 31 AUDIO
    TITLE "0:"
    INDEX 01 00:33:05
  TRACK 32 AUDIO
    TITLE "5:cjc124_0214"
    INDEX 01 00:33:44
  TRACK 33 AUDIO
    TITLE "0:"
    INDEX 01 00:35:29
  TRACK 34 AUDIO
    TITLE "6:cjc124_0215"
    INDEX 01 00:35:51
  TRACK 35 AUDIO
    TITLE "0:"
    INDEX 01 00:36:70
  TRACK 36 AUDIO
    TITLE "5:cjc124_0216"
    INDEX 01 00:37:32
  TRACK 37 AUDIO
    TITLE "0:"
    INDEX 01 00:39:23
  TRACK 38 AUDIO
    TITLE "6:cjc124_0217"
    INDEX 01 00:39:39
  TRACK 39 AUDIO
    TITLE "0:"
    INDEX 01 00:41:16
  TRACK 40 AUDIO
    TITLE "5:cjc124_0218"
    INDEX 01 00:41:53
  TRACK 41 AUDIO
    TITLE "0:"
    INDEX 01 00:43:31
  TRACK 42 AUDIO
    TITLE "6:cjc124_0219"
    INDEX 01 00:43:48
  TRACK 43 AUDIO
    TITLE "0:"
    INDEX 01 00:45:53
  TRACK 44 AUDIO
    TITLE "5:cjc124_0220"
    INDEX 01 00:46:15
  TRACK 45 AUDIO
    TITLE "0:"
    INDEX 01 00:48:14
  TRACK 46 AUDIO
    TITLE "6:cjc124_0221"
    INDEX 01 00:48:28
  TRACK 47 AUDIO
    TITLE "0:"
    INDEX 01 00:50:05
  TRACK 48 AUDIO
    TITLE "5:cjc124_0222"
    INDEX 01 00:50:42
  TRACK 49 AUDIO
    TITLE "0:"
    INDEX 01 00:52:51
  TRACK 50 AUDIO
    TITLE "6:cjc124_0223"
    INDEX 01 00:52:65
  TRACK 51 AUDIO
    TITLE "0:"
    INDEX 01 00:54:23
  TRACK 52 AUDIO
    TITLE "5:cjc124_0224"
    INDEX 01 00:54:60
  TRACK 53 AUDIO
    TITLE "0:"
    INDEX 01 00:56:37
  TRACK 54 AUDIO
    TITLE "6:cjc124_0225"
    INDEX 01 00:56:53
  TRACK 55 AUDIO
    TITLE "0:"
    INDEX 01 00:58:05
  TRACK 56 AUDIO
    TITLE "5:cjc124_0226"
    INDEX 01 00:58:42
  TRACK 57 AUDIO
    TITLE "0:"
    INDEX 01 01:00:27
  TRACK 58 AUDIO
    TITLE "6:cjc124_0227"
    INDEX 01 01:00:60
  TRACK 59 AUDIO
    TITLE "0:"
    INDEX 01 01:02:26
  TRACK 60 AUDIO
    TITLE "5:cjc124_0228"
    INDEX 01 01:02:63
  TRACK 61 AUDIO
    TITLE "0:"
    INDEX 01 01:04:17
  TRACK 62 AUDIO
    TITLE "6:cjc124_0229"
    INDEX 01 01:04:37
  TRACK 63 AUDIO
    TITLE "0:"
    INDEX 01 01:06:08
  TRACK 64 AUDIO
    TITLE "5:cjc124_0230"
    INDEX 01 01:06:43
  TRACK 65 AUDIO
    TITLE "0:"
    INDEX 01 01:08:17
  TRACK 66 AUDIO
    TITLE "6:cjc124_0231"
    INDEX 01 01:08:50
  TRACK 67 AUDIO
    TITLE "0:"
    INDEX 01 01:09:65
